<!DOCTYPE svg PUBLIC "-//W3C//DTD SVG 1.1//EN" "http://www.w3.org/Graphics/SVG/1.1/DTD/svg11.dtd">
<!-- Uploaded to: SVG Repo, www.svgrepo.com, Transformed by: SVG Repo Mixer Tools -->
<svg fill="#ffffff" width="124px" height="124px" viewBox="0 0 24 24" id="add-file-12" data-name="Flat Color" xmlns="http://www.w3.org/2000/svg" class="icon flat-color">
<g id="SVGRepo_bgCarrier" stroke-width="0"/>
<g id="SVGRepo_tracerCarrier" stroke-linecap="round" stroke-linejoin="round" stroke="#CCCCCC" stroke-width="0.24000000000000005"/>
<g id="SVGRepo_iconCarrier">
<path id="primary" d="M10,19a5,5,0,0,0-4-4.9H6V7a1,1,0,0,1,.29-.71l4-4A1,1,0,0,1,11,2h9a2,2,0,0,1,2,2V20a2,2,0,0,1-2,2H9A5,5,0,0,0,10,19Z" style="fill: #ffffff;"/>
<path id="secondary" d="M4,21V20H3a1,1,0,0,1,0-2H4V17a1,1,0,0,1,2,0v1H7a1,1,0,0,1,0,2H6v1a1,1,0,0,1-2,0Zm8-7h6a1,1,0,0,0,0-2H12a1,1,0,0,0,0,2Zm-2-4h8a1,1,0,0,0,0-2H10a1,1,0,0,0,0,2Z" style="fill: #0092C6;"/>
</g>
</svg>